<?xml version="1.0" encoding="UTF-8"?>
<svg id="Layer_1" data-name="Layer 1" xmlns="http://www.w3.org/2000/svg" viewBox="0 0 16 16">
  <defs>
    <style>
      .cls-1 {
        fill: #fee552;
      }

      .cls-2, .cls-3 {
        fill: #e53e8f;
      }

      .cls-4 {
        fill: #57c5c8;
      }

      .cls-3 {
        stroke: #000;
        stroke-miterlimit: 10;
      }
    </style>
  </defs>
  <g id="Group_322" data-name="Group 322">
    <g id="Group_2" data-name="Group 2">
      <path id="Path_2" data-name="Path 2" class="cls-3" d="m2.62,13.78c1.15-.13,1.41-.15,1.41-.59v-3.3c0-.83.01-1.09.4-.35l1.09,2.06c.51.95,1.69.63,2.03.1l2.84-4.27c.44-.68.22-.33.22.47l-.05,5.31c.03.78,1.1.7,1.55.7h1.68c.46,0,.83-.35.83-.79h0V2.88c0-.43-.37-.79-.83-.79h0l-2.63.02c-.29,0-.91.53-1.06.77l-2.09,3.3c-.83,1.38-1.58.54-2.09-.1,0-.02-.03-.06-.05-.1l-1.63-3.39c-.13-.29-.43-.48-.76-.48l-1.25-.02c-.46,0-.83.35-.83.79h0v10.25s.07.78,1.22.65Z"/>
    </g>
    <g id="Group_2-2" data-name="Group 2">
      <path id="Path_2-2" data-name="Path 2" class="cls-2" d="m2.59,13.78c1.12-.13,1.37-.15,1.37-.59v-3.3c0-.83,0-1.09.39-.35l1.06,2.06c.49.95,1.65.63,1.98.1l2.77-4.27c.43-.68.22-.33.21.47l-.04,5.31c.03.78,1.07.7,1.52.7h1.64c.45,0,.81-.35.81-.79h0V2.88c0-.43-.36-.79-.81-.79h0l-2.57.02c-.28,0-.89.53-1.03.77l-2.04,3.3c-.81,1.38-1.54.54-2.04-.1,0-.02-.03-.06-.05-.1l-1.59-3.39c-.13-.29-.42-.48-.74-.48l-1.22-.02c-.45,0-.81.35-.81.79h0v10.25s.07.78,1.19.65Z"/>
    </g>
    <g id="Group_141" data-name="Group 141">
      <path id="Path_2-2" data-name="Path 2-2" class="cls-4" d="m2.4,13.22l-.16-10.24c0-.39.33-.71.73-.71h.84c.29,0,.56.17.67.43l1.43,3.31c.71,1.4,2.67,1.53,3.36.23l2.22-3.63c.13-.21.37-.34.62-.34h1.77c.4,0,.73.32.73.71v10.06c0,.39-.33.71-.73.71h-1.47c-.4,0-.73-.32-.73-.71,0,0,0,0,0,0l.04-5.35c0-.72-.96-.98-1.35-.37l-2.45,3.92c-.3.47-1.39.61-1.64.11l-.62-2.1c-.34-.67-1.38-.43-1.38.32v3.48c0,.39-.26.65-.66.65s-.66.06-.87.06"/>
    </g>
    <g id="Group_140" data-name="Group 140">
      <path id="Path_2-3" data-name="Path 2-3" class="cls-1" d="m2.24,13.03V2.98c0-.39.32-.71.71-.71h.24c.28,0,.54.17.65.43l1.39,3.31c.69,1.4,2.6,1.53,3.27.23l2.16-3.63c.13-.21.36-.34.61-.34h1.72c.39,0,.71.32.71.71v10.06c0,.39-.32.71-.71.71h-1.43c-.39,0-.71-.32-.71-.71,0,0,0,0,0,0l.04-5.35c0-.72-.94-.98-1.31-.37l-2.39,3.92c-.2.33-.64.44-.97.24-.11-.07-.21-.17-.26-.29l-.97-1.94c-.33-.67-1.34-.43-1.34.32v3.48c0,.39-.32.71-.71.71s-.71-.32-.71-.71"/>
    </g>
  </g>
</svg>